<?xml version="1.0" encoding="utf-8"?>
<!-- Generator: Adobe Illustrator 23.0.0, SVG Export Plug-In . SVG Version: 6.00 Build 0)  -->
<svg version="1.1" id="Layer_1" xmlns="http://www.w3.org/2000/svg" xmlns:xlink="http://www.w3.org/1999/xlink" x="0px" y="0px"
	 viewBox="0 0 512 512" style="enable-background:new 0 0 512 512;" xml:space="preserve">
<style type="text/css">
	.st0{fill:#2EAADE;}
	.st1{fill:#0B74B8;}
	.st2{fill:#FFFFFF;}
	.st3{fill:#DEECF1;}
	.st4{fill-rule:evenodd;clip-rule:evenodd;fill:#FFFEFD;}
	.st5{fill-rule:evenodd;clip-rule:evenodd;fill:#DEECF1;}
	.st6{fill-rule:evenodd;clip-rule:evenodd;fill:#258BAF;}
	.st7{fill-rule:evenodd;clip-rule:evenodd;fill:#2EAADE;}
	.st8{fill:#00649B;}
	.st9{fill-rule:evenodd;clip-rule:evenodd;fill:#0B74B8;}
	.st10{fill:none;}
</style>
<g>
	<path class="st0" d="M512,256c0,141.375-114.625,255.9999695-256,255.9999695S0,397.375,0,256S114.6249924,0,256,0
		S512,114.6250076,512,256L512,256z"/>
	<path class="st1" d="M511.6249695,241.75L374.375,91.375c-2,0.625-53.125,17.0000076-55.375,17.0000076
		c-11.25,0,40.7499695,37.1249924,35.125,42.7499924c-17.625,17.75-19.875,16.75-39,25c-19.75,8.5-31.875-4-47.5,28.75
		c-10.375,22.375-84.6249847-1.625-93.25,24.25c-2.75,10.75-45,157.75-48.25,168.125L241.75,511.625
		c4.75,0.25,9.5,0.3749695,14.25,0.3749695c141.375,0,256-114.6249695,256-255.9999847C512,251.25,511.875,246.5,511.6249695,241.75
		L511.6249695,241.75z"/>
	<path class="st2" d="M95.25,170.5L126,397.125L255.25,441l127.375-43.875L413.25,170.5H95.25z"/>
	<path class="st3" d="M255.25,170.5V441l127.375-43.875L413.25,170.5H255.25z"/>
	<polygon class="st4" points="138.375,91.75 138.375,170.5 201.5,170.5 201.5,147.375 164.5,147.375 164.5,114.875 201.875,114.875 
		201.875,91.375 	"/>
	<polygon class="st4" points="214.875,91.75 214.875,112.625 250.5,150 214.875,150.5 214.875,170.5 286.625,170.5 286.625,150 
		252.75,112.625 287,112.625 287,91.375 	"/>
	<polygon class="st5" points="302.25,91.75 302.25,112.625 337.875,150 302.25,150.5 302.25,170.5 374,170.5 374,150 
		340.125,112.625 374.375,112.625 374.375,91.375 	"/>
	<polygon class="st6" points="349.75,218.75 339,184.25 160.125,258.5 165.625,296.625 	"/>
	<polygon class="st7" points="154.5,170.875 157.875,217.25 349.875,217.25 354.25,170.5 	"/>
	<polygon class="st7" points="160.125,258.75 164.875,300.875 305,300.875 300.375,355 255.125,367.25 209.125,355 206.625,321.5 
		166,321.25 171.375,387.625 255.125,412 338.5,387.625 349.75,258.75 	"/>
	<polygon class="st8" points="255.25,258.75 349.75,218.75 339,184.25 255.25,219.125 	"/>
	<polygon class="st1" points="255.25,300.875 305,300.875 300.375,355 255.25,367.25 255.25,412 338.5,387.625 349.75,258.75 
		255.25,258.75 	"/>
	<polygon class="st9" points="255.25,217.25 349.875,217.25 354.25,170.5 255.25,170.625 	"/>
	<g>
		<polygon class="st10" points="255.25,115.375 252.75,112.625 255.25,112.625 255.25,91.625 214.875,91.75 214.875,112.625 
			250.5,150 214.875,150.5 214.875,170.5 255.25,170.5 		"/>
		<polygon class="st3" points="286.625,170.5 286.625,150 255.25,115.375 255.25,170.5 		"/>
		<polygon class="st3" points="287,112.625 287,91.375 255.25,91.625 255.25,112.625 		"/>
	</g>
</g>
</svg>
