<?xml version="1.0" encoding="utf-8"?>
<!-- Generator: Adobe Illustrator 23.0.0, SVG Export Plug-In . SVG Version: 6.00 Build 0)  -->
<svg version="1.1" id="Слой_1" xmlns="http://www.w3.org/2000/svg" xmlns:xlink="http://www.w3.org/1999/xlink" x="0px" y="0px"
	 viewBox="0 0 218.3 141.7" style="enable-background:new 0 0 218.3 141.7;" xml:space="preserve">
<style type="text/css">
	.st0{fill:#2EAADE;}
	.st1{fill:#0B74B8;}
	.st2{fill:#FFFFFF;}
	.st3{fill:#DEECF1;}
	.st4{fill-rule:evenodd;clip-rule:evenodd;fill:#FFFEFD;}
	.st5{fill-rule:evenodd;clip-rule:evenodd;fill:#DEECF1;}
	.st6{fill-rule:evenodd;clip-rule:evenodd;fill:#258BAF;}
	.st7{fill-rule:evenodd;clip-rule:evenodd;fill:#2EAADE;}
	.st8{fill:#00649B;}
	.st9{fill-rule:evenodd;clip-rule:evenodd;fill:#0B74B8;}
	.st10{fill:none;}
</style>
<g>
	<path class="st0" d="M313.6,71.5c0,113.1-91.7,204.8-204.8,204.8C-4.3,276.3-96,184.6-96,71.5c0-113.1,91.7-204.8,204.8-204.8
		C221.9-133.3,313.6-41.6,313.6,71.5L313.6,71.5z M313.6,71.5"/>
	<path class="st1" d="M313.3,60.1L203.5-60.2c-1.6,0.5-42.5,13.6-44.3,13.6c-9,0,32.6,29.7,28.1,34.2C173.2,1.8,171.4,1,156.1,7.6
		c-15.8,6.8-25.5-3.2-38,23c-8.3,17.9-67.7-1.3-74.6,19.4C41.3,58.6,7.5,176.2,4.9,184.5L97.4,276c3.8,0.2,7.6,0.3,11.4,0.3
		c113.1,0,204.8-91.7,204.8-204.8C313.6,67.7,313.5,63.9,313.3,60.1L313.3,60.1z M313.3,60.1"/>
	<path class="st2" d="M-19.8,3.1L4.8,184.4l103.4,35.1l101.9-35.1L234.6,3.1H-19.8z"/>
	<path class="st3" d="M108.2,3.1v216.4l101.9-35.1L234.6,3.1H108.2z"/>
	<polygon class="st4" points="14.7,-59.9 14.7,3.1 65.2,3.1 65.2,-15.4 35.6,-15.4 35.6,-41.4 65.5,-41.4 65.5,-60.2 14.7,-59.9 	
		"/>
	<polygon class="st4" points="75.9,-59.9 75.9,-43.2 104.4,-13.3 75.9,-12.9 75.9,3.1 133.3,3.1 133.3,-13.3 106.2,-43.2 
		133.6,-43.2 133.6,-60.2 75.9,-59.9 	"/>
	<polygon class="st5" points="145.8,-59.9 145.8,-43.2 174.3,-13.3 145.8,-12.9 145.8,3.1 203.2,3.1 203.2,-13.3 176.1,-43.2 
		203.5,-43.2 203.5,-60.2 145.8,-59.9 	"/>
	<polygon class="st6" points="183.8,41.7 175.2,14.1 32.1,73.5 36.5,104 	"/>
	<polygon class="st7" points="27.6,3.4 30.3,40.5 183.9,40.5 187.4,3.1 27.6,3.4 	"/>
	<polygon class="st7" points="32.1,73.7 35.9,107.4 148,107.4 144.3,150.7 108.1,160.5 71.3,150.7 69.3,123.9 36.8,123.7 
		41.1,176.8 108.1,196.3 174.8,176.8 183.8,73.7 32.1,73.7 	"/>
	<polygon class="st8" points="108.2,73.7 183.8,41.7 175.2,14.1 108.2,42 	"/>
	<polygon class="st1" points="108.2,107.4 148,107.4 144.3,150.7 108.2,160.5 108.2,196.3 174.8,176.8 183.8,73.7 108.2,73.7 	"/>
	<polygon class="st9" points="108.2,40.5 183.9,40.5 187.4,3.1 108.2,3.2 	"/>
	<g>
		<polygon class="st10" points="108.2,-41 106.2,-43.2 108.2,-43.2 108.2,-60 75.9,-59.9 75.9,-43.2 104.4,-13.3 75.9,-12.9 
			75.9,3.1 108.2,3.1 		"/>
		<polygon class="st3" points="133.3,3.1 133.3,-13.3 108.2,-41 108.2,3.1 		"/>
		<polygon class="st3" points="133.6,-43.2 133.6,-60.2 108.2,-60 108.2,-43.2 		"/>
	</g>
</g>
</svg>
