<?xml version="1.0" encoding="utf-8"?>
<!-- Generator: Adobe Illustrator 23.0.0, SVG Export Plug-In . SVG Version: 6.00 Build 0)  -->
<svg version="1.1" id="Слой_1" xmlns="http://www.w3.org/2000/svg" xmlns:xlink="http://www.w3.org/1999/xlink" x="0px" y="0px"
	 viewBox="0 0 409.6 409.6" style="enable-background:new 0 0 409.6 409.6;" xml:space="preserve">
<style type="text/css">
	.st0{fill:#BF97FF;}
	.st1{fill:#525967;}
	.st2{fill:#A259FF;}
	.st3{fill:#FFFFFF;}
	.st4{fill:#0ACF83;}
	.st5{fill:#F24E1E;}
	.st6{fill:#FF7262;}
	.st7{fill:#1ABCFE;}
	.st8{fill:none;}
	.st9{fill:#DCDCE0;}
</style>
<title>GitHub icon flat</title>
<g>
	<path class="st0" d="M409.6,205.5c0,113.1-91.7,204.8-204.8,204.8S0,318.6,0,205.5S91.7,0.7,204.8,0.7S409.6,92.4,409.6,205.5
		L409.6,205.5z"/>
	<path class="st1" d="M409.6,205.5"/>
	<path class="st2" d="M300,110.2l-50.1-28.5l-45.5-8.3l0.8,261.9l-31.9-5.7l-36.8-15.2l-32.4-21.3l106.4,117.2c0,0,8.5-0.2,17.7-1.2
		c8.9-1,16.4-2.5,16.4-2.5c89.7-17.6,158.4-93.8,164.7-187L300,110.2z"/>
</g>
<g>
	<circle class="st3" cx="204.9" cy="205.4" r="135"/>
	<path id="path0_fill" class="st4" d="M179.1,283.8c14.6,0,26.4-11.8,26.4-26.4v-26.9h-26.4c-14.6,0-26.4,11.8-26.4,26.4
		c0,14.6,11.8,26.4,26.4,26.4V283.8z"/>
	<path id="path1_fill" class="st2" d="M152.7,204.9c0.4-14.6,12.5-26.1,27-25.7l0,0h25.7v51.4h-25.7
		C165.2,230.9,153.1,219.4,152.7,204.9L152.7,204.9z"/>
	<path id="path1_fill-2" class="st5" d="M152.7,152.1c0.1-14.6,12-26.3,26.5-26.2c0.2,0,0.3,0,0.5,0h25.7v53.2h-25.6
		c-14.6,0.4-26.7-11.1-27.1-25.7C152.7,153.1,152.7,152.6,152.7,152.1z"/>
	<path id="path2_fill" class="st6" d="M205.4,125.9h25.7c14.7,0,26.6,11.9,26.6,26.6s-11.9,26.6-26.6,26.6h-25.7
		C205.4,179.1,205.4,125.9,205.4,125.9z"/>
	<path id="path3_fill" class="st7" d="M258.2,204.9c0.4,14.6-11.1,26.7-25.7,27c-14.6,0.4-26.7-11.1-27-25.7
		c-0.4-14.5,11.1-26.6,25.7-27C245.7,178.8,257.8,190.3,258.2,204.9L258.2,204.9z"/>
	<path class="st8" d="M204.8,44.7v25.9c0.2,0,0.4,0,0.6,0c74.2,0,134.4,60.2,134.4,134.4s-60.2,134.4-134.4,134.4
		c-0.2,0-0.4,0-0.6,0v8.1h170.8V44.7H204.8z"/>
	<path class="st9" d="M204.8,80.9c68.8,0,124.6,55.8,124.6,124.6s-55.8,124.6-124.6,124.6S80.2,274.4,80.2,205.5
		C80.3,136.8,136,81,204.8,80.9 M204.8,70.6c-74.5,0-134.9,60.4-134.9,134.9s60.4,134.9,134.9,134.9S339.7,280,339.7,205.5
		S279.3,70.6,204.8,70.6L204.8,70.6z"/>
</g>
</svg>
