<svg xmlns="http://www.w3.org/2000/svg" viewBox="0 0 409.6 409.6"><defs><style>.a{fill:#384949;}.b{fill:#293939;}.c{fill:#ececf1;}.d{fill:#e2e2e7;}</style></defs><title>GitHub icon flat</title><path class="a" d="M409.6,204.8c0,113.11-91.69,204.8-204.8,204.8S0,317.91,0,204.8,91.69,0,204.8,0,409.6,91.69,409.6,204.8Z"/><path class="b" d="M297.21,106.83,239.39,146,129.28,176.15,104.05,292.33,210.43,409.52s8.5-.23,17.67-1.23c8.87-1,16.36-2.54,16.36-2.54,89.7-17.6,158.39-93.75,164.66-187Z"/><path class="c" d="M339.27,204.79c0,62.94-44.11,115.66-102.8,129.82l-16.05-51H189.58l-15.53,51C115.37,320.45,70.73,267.73,70.73,204.79,70.73,131,131.2,70,205,70S339.27,131,339.27,204.79Z"/><path class="d" d="M339.27,204.79c0,62.94-44.11,115.66-102.8,129.82l-16.05-51H205V70C278.8,70,339.27,131,339.27,204.79Z"/><path class="a" d="M165.81,295.56a32.83,32.83,0,0,1-9.35-1.35c-7.94-2.34-14.38-7.63-19.17-15.69a23.89,23.89,0,0,0-7.14-8c-2.63-1.77-4.74-2.45-7-2.29l-1.38-15.67c5.83-.5,11.41,1.08,17.09,4.89a39.37,39.37,0,0,1,11.92,13.06c2.78,4.68,6,7.43,10.1,8.64,4.61,1.36,9.41.79,15.54-1.82l6.19,14.46A42.79,42.79,0,0,1,165.81,295.56Z"/><path class="a" d="M281,220.69c-5.51,14.63-19.35,33.2-54.44,38.39,4.56,6.76,10.07,10.38,9.91,24.55v51A130,130,0,0,1,205,338.54a125.76,125.76,0,0,1-30.95-3.93V283c0-14,5.3-17.94,9.39-23.92-35.09-5.19-48.93-23.76-54.44-38.39-7.39-19.52-3.46-43.75,9.44-59.17.32-.31.79-1.1.63-1.57-6-17.94,1.26-32.88,1.58-34.46,6.76,2.05,7.86-2,29.73,11.33l3.78,2.2c1.57.95,1.1.32,2.68.32A106.58,106.58,0,0,1,205,135.4a112.05,112.05,0,0,1,28.64,3.94l1.1.16a2.65,2.65,0,0,0,1.1-.48c27.22-16.52,26.28-11.17,33.67-13.53.16,1.58,7.4,16.68,1.42,34.46C270.14,162.31,294.53,184.65,281,220.69Z"/><path class="b" d="M281,220.69c-5.51,14.63-19.35,33.2-54.44,38.39,4.56,6.76,10.07,10.38,9.91,24.55v51A130,130,0,0,1,205,338.54V135.4a112.05,112.05,0,0,1,28.64,3.94l1.1.16a2.65,2.65,0,0,0,1.1-.48c27.22-16.52,26.28-11.17,33.67-13.53.16,1.58,7.4,16.68,1.42,34.46C270.14,162.31,294.53,184.65,281,220.69Z"/></svg>