<?xml version="1.0" encoding="utf-8"?>
<!-- Generator: Adobe Illustrator 23.0.0, SVG Export Plug-In . SVG Version: 6.00 Build 0)  -->
<svg version="1.1" id="Layer_1" xmlns="http://www.w3.org/2000/svg" xmlns:xlink="http://www.w3.org/1999/xlink" x="0px" y="0px"
	 viewBox="0 0 512 512" style="enable-background:new 0 0 512 512;" xml:space="preserve">
<style type="text/css">
	.st0{fill:#D2321E;}
	.st1{fill:#A42916;}
	.st2{fill:#EAEAEA;}
	.st3{fill:#F44B3C;}
	.st4{fill:#FF5043;}
	.st5{fill:none;}
	.st6{fill:#EEEEEE;}
	.st7{fill:#E43F2E;}
	.st8{fill:#E3E3E3;}
	.st9{fill:url(#SVGID_1_);}
	.st10{fill:url(#SVGID_2_);}
</style>
<circle class="st0" cx="255.9999847" cy="255.9999847" r="256"/>
<path class="st1" d="M99.8753052,371.4447632L241.177002,511.5623779C246.0836182,511.8425903,251.0231323,512,255.999939,512
	C397.3848877,512,512,397.3848877,512,255.999939c0-4.5379639-0.1223145-9.0471802-0.3555298-13.5270996l-98.8139038-100.9522705
	L99.8753052,371.4447632z"/>
<g>
	<path class="st2" d="M397.6134033,377.3829041H114.386528c-11.1739273,0-20.2304916-9.0564575-20.2304916-20.2304688V154.8475189
		c0-11.1739349,9.0565643-20.2304993,20.2304916-20.2304993h283.2268677c11.1740112,0,20.2304688,9.0565643,20.2304688,20.2304993
		v202.3049164C417.8438721,368.3264465,408.7874146,377.3829041,397.6134033,377.3829041z"/>
	<path class="st3" d="M134.6170197,377.3829041H114.386528c-11.1739273,0-20.2304916-9.0564575-20.2304916-20.2304688V154.8475189
		c0-11.1739349,9.0565643-20.2304993,20.2304916-20.2304993l0,0c11.1740265,0,20.2304916,9.0565643,20.2304916,20.2304993
		V377.3829041z"/>
	<path class="st0" d="M377.3829041,377.3829041h20.2304993c11.1740112,0,20.2304688-9.0564575,20.2304688-20.2304688V154.8475189
		c0-11.1739349-9.0564575-20.2304993-20.2304688-20.2304993l0,0c-11.1739197,0-20.2304993,9.0565643-20.2304993,20.2304993
		V377.3829041z"/>
	<path class="st4" d="M409.1987915,171.4365692c5.2261658-3.6617432,8.6450806-9.7241364,8.6450806-16.5890503
		c0-11.1739349-9.0564575-20.2304993-20.2304688-20.2304993c-4.3091125,0-8.3079224,1.3487396-11.5852966,3.6415405
		l-130.0146484,94.6584015l-0.013504,0.0067902l-0.0134888-0.0067902l-130.0145569-94.6584015
		c-3.277359-2.2928009-7.2762756-3.6415405-11.5853806-3.6415405c-11.1739273,0-20.2304916,9.0565643-20.2304916,20.2304993
		c0,6.8649139,3.419014,12.9273071,8.6452026,16.5890503l-0.5395126-0.3978729l153.7382202,111.9353333"/>
	<line class="st5" x1="409.7449951" y1="171.0386963" x2="255.9999542" y2="282.9740295"/>
	<path class="st6" d="M397.6134033,134.6170197c-4.3091125,0-8.3079224,1.3487396-11.5852966,3.6415405l-130.0146484,94.6584015
		l-0.013504,0.0067902l-0.0134888-0.0067902l-130.0145569-94.6584015c-3.277359-2.2928009-7.2762756-3.6415405-11.5853806-3.6415405
		H397.6134033z"/>
	<path class="st7" d="M134.6238098,203.3198242l-34.0951843-33.7714081l-0.0133896,0.026886
		c0.7147446,0.6743774,1.4767838,1.294754,2.2860031,1.8612671l-0.5395126-0.3978729l32.368782,23.5685425l-0.0066986,8.9552917"/>
	<polyline class="st8" points="233.5306396,300.4463501 134.6170197,377.3829041 134.6238098,202.4769135 233.5104523,300.4193726 	
		"/>
	
		<linearGradient id="SVGID_1_" gradientUnits="userSpaceOnUse" x1="134.6238098" y1="266.4732056" x2="255.9999542" y2="266.4732056" gradientTransform="matrix(1 0 0 -1 0 514)">
		<stop  offset="0" style="stop-color:#C8C8C8"/>
		<stop  offset="1" style="stop-color:#CDCDCD"/>
	</linearGradient>
	<polygon class="st9" points="233.5306396,300.4463501 255.9999542,282.9740295 134.6238098,194.6072388 134.6238098,202.4769135 
		233.5104523,300.4193726 	"/>
	
		<linearGradient id="SVGID_2_" gradientUnits="userSpaceOnUse" x1="233.5104523" y1="228.0083313" x2="377.3829041" y2="228.0083313" gradientTransform="matrix(1 0 0 -1 0 514)">
		<stop  offset="0" style="stop-color:#D9D9D9"/>
		<stop  offset="1" style="stop-color:#E2E2E2"/>
	</linearGradient>
	<polygon class="st10" points="310.359314,377.3829041 377.3829041,377.3829041 377.3829041,194.6004333 255.9999542,282.9740295 
		233.5104523,300.4193726 	"/>
</g>
</svg>
