<?xml version="1.0" encoding="utf-8"?>
<!-- Generator: Adobe Illustrator 23.0.0, SVG Export Plug-In . SVG Version: 6.00 Build 0)  -->
<svg version="1.1" id="Слой_1" xmlns="http://www.w3.org/2000/svg" xmlns:xlink="http://www.w3.org/1999/xlink" x="0px" y="0px"
	 viewBox="0 0 218.3 141.7" style="enable-background:new 0 0 218.3 141.7;" xml:space="preserve">
<style type="text/css">
	.st0{fill:#FD982C;}
	.st1{fill:#FA502E;}
	.st2{fill:#FFFFFF;}
	.st3{fill:#F4E0CE;}
</style>
<path class="st0" d="M313.6,71.5c0,113.1-91.7,204.8-204.8,204.8C-4.3,276.3-96,184.6-96,71.5c0-113.1,91.7-204.8,204.8-204.8
	C221.9-133.3,313.6-41.6,313.6,71.5L313.6,71.5z M313.6,71.5"/>
<path class="st1" d="M313.3,60.1l-78.7-78c-1.6,0.5-6,2.5-7.8,2.5c-9,0-10.8,5.6-15.3,10.1c-14.2,14.2-0.7,21.7-16,28.3
	c-15.8,6.8-64.9-18.7-77.3,7.5c-8.3,17.9-67.7-1.3-74.6,19.4C41.3,58.6,7.5,176.2,4.9,184.5L97.4,276c3.8,0.2,7.6,0.3,11.4,0.3
	c113.1,0,204.8-91.7,204.8-204.8C313.6,67.7,313.5,63.9,313.3,60.1L313.3,60.1z M313.3,60.1"/>
<path class="st2" d="M-19.8,3.1L4.8,184.4l103.4,35.1l101.9-35.1L234.6,3.1H-19.8z"/>
<path class="st3" d="M108.2,3.1v216.4l101.9-35.1L234.6,3.1H108.2z"/>
<path class="st0" d="M183.8,45.8l-108.6,0L77,65.7h106.2l-8.6,111L108.1,196l-71.5-22.2v-45H81v13.4l27.1,8.4l25.7-8.4l1.9-33.2
	H37.2L26.1,3.1h157.6V45.8z"/>
<g>
	<path class="st1" d="M108.2,3.1h75.6v42.7h-75.6V3.1z"/>
	<path class="st1" d="M135.6,108.9l-1.9,33.2l-25.6,8.4V196l66.5-19.3l8.6-111h-75.1v43.3H135.6z"/>
</g>
<polygon class="st3" points="183.8,-60.4 204.9,-60.4 204.9,-17.9 234.6,-17.9 234.6,3.1 183.8,3.1 "/>
<polygon class="st3" points="108.2,-60.4 130.3,-60.4 143.9,-38 157.5,-60.4 179.6,-60.4 179.6,3.1 158.5,3.1 158.5,-28.3 
	143.9,-5.8 143.6,-5.8 129,-28.3 129,3.1 108.2,3.1 108.2,-60.4 "/>
<polygon class="st2" points="45.8,-60.4 104.4,-60.4 104.4,-39.3 85.7,-39.3 85.7,3.1 64.5,3.1 64.5,-39.3 45.8,-39.3 45.8,-60.4 
	"/>
<polygon class="st2" points="-19.8,-60.4 1.4,-60.4 1.4,-39.4 20.8,-39.4 20.8,-60.4 42,-60.4 42,3.1 20.8,3.1 20.8,-18.2 
	1.4,-18.2 1.4,3.1 -19.8,3.1 "/>
</svg>
