<?xml version="1.0" encoding="utf-8"?>
<!-- Generator: Adobe Illustrator 23.0.0, SVG Export Plug-In . SVG Version: 6.00 Build 0)  -->
<svg version="1.1" id="Layer_1" xmlns="http://www.w3.org/2000/svg" xmlns:xlink="http://www.w3.org/1999/xlink" x="0px" y="0px"
	 viewBox="0 0 512 512" style="enable-background:new 0 0 512 512;" xml:space="preserve">
<style type="text/css">
	.st0{fill:#FD982C;}
	.st1{fill:#FA502E;}
	.st2{fill:#FFFFFF;}
	.st3{fill:#F4E0CE;}
</style>
<path class="st0" d="M512,256c0,141.375-114.625,255.9999695-256,255.9999695S0,397.375,0,256S114.6249924,0,256,0
	S512,114.6250076,512,256L512,256z"/>
<path class="st1" d="M511.6249695,241.75l-98.375-97.5c-2,0.625-7.5,3.125-9.75,3.125c-11.25,0-13.5,7-19.125,12.625
	c-17.75,17.75-0.875,27.125-20,35.375c-19.75,8.5-81.125-23.375-96.625,9.375c-10.375,22.375-84.6249847-1.625-93.25,24.25
	C171.625,239.875,129.375,386.875,126.125,397.25L241.75,511.625c4.75,0.25,9.5,0.3749695,14.25,0.3749695
	c141.375,0,256-114.6249695,256-255.9999847C512,251.25,511.875,246.5,511.6249695,241.75L511.6249695,241.75z"/>
<path class="st2" d="M95.25,170.5L126,397.125L255.25,441l127.375-43.875L413.25,170.5H95.25z"/>
<path class="st3" d="M255.25,170.5V441l127.375-43.875L413.25,170.5H255.25z"/>
<path class="st0" d="M349.75,223.875H214l2.25,24.875H349L338.2499695,387.5L255.125,411.625l-89.375-27.75v-56.25h55.5v16.75
	l33.875,10.5l32.125-10.5l2.375-41.5H166.5L152.625,170.5h197v53.375H349.75z"/>
<g>
	<path class="st1" d="M255.25,170.5h94.4999695v53.375h-94.4999847C255.2499847,223.875,255.2499847,170.5,255.25,170.5z"/>
	<path class="st1" d="M289.5,302.75l-2.375,41.5l-31.9999847,10.5v56.875L338.25,387.5L349,248.75h-93.8749847v54.125H289.5V302.75z
		"/>
</g>
<polygon class="st3" points="349.75,91.125 376.125,91.125 376.125,144.25 413.25,144.25 413.25,170.5 349.75,170.5 "/>
<polygon class="st3" points="255.25,91.125 282.875,91.125 299.875,119.125 316.875,91.125 344.5,91.125 344.5,170.5 318.125,170.5 
	318.125,131.25 299.875,159.375 299.5,159.375 281.25,131.25 281.25,170.5 255.25,170.5 "/>
<polygon class="st2" points="177.25,91.125 250.5,91.125 250.5,117.5 227.125,117.5 227.125,170.5 200.625,170.5 200.625,117.5 
	177.25,117.5 "/>
<polygon class="st2" points="95.25,91.125 121.75,91.125 121.75,117.375 146,117.375 146,91.125 172.5,91.125 172.5,170.5 
	146,170.5 146,143.875 121.75,143.875 121.75,170.5 95.25,170.5 "/>
</svg>
