<?xml version="1.0" encoding="utf-8"?>
<!-- Generator: Adobe Illustrator 23.0.0, SVG Export Plug-In . SVG Version: 6.00 Build 0)  -->
<svg version="1.1" id="Слой_1" xmlns="http://www.w3.org/2000/svg" xmlns:xlink="http://www.w3.org/1999/xlink" x="0px" y="0px"
	 viewBox="0 0 218.3 141.7" style="enable-background:new 0 0 218.3 141.7;" xml:space="preserve">
<style type="text/css">
	.st0{fill:#FFD93A;}
	.st1{fill:#DAB92C;}
	.st2{fill:#FFFFFF;}
	.st3{fill:#EAE5D0;}
</style>
<path class="st0" d="M313.6,71.5c0,113.1-91.7,204.8-204.8,204.8C-4.3,276.3-96,184.6-96,71.5c0-113.1,91.7-204.8,204.8-204.8
	C221.9-133.3,313.6-41.6,313.6,71.5L313.6,71.5z M313.6,71.5"/>
<path class="st1" d="M313.3,60.1l-76-91.4c-1.6,0.5-75.6,19.5-77.3,19.5c-9,0-20.9,21.4-28.1,25.2c-8.4,4.4-128.4,77-128,177
	L97.4,276c3.8,0.2,7.6,0.3,11.4,0.3c113.1,0,204.8-91.7,204.8-204.8C313.6,67.7,313.5,63.9,313.3,60.1z M313.3,60.1"/>
<g>
	<polygon class="st2" points="-19,-31.3 3.9,190.3 109,222.3 214.2,190.3 237.3,-31.3 	"/>
	<polygon class="st3" points="109,222.3 214.2,196.7 237.3,-31.3 109,-31.3 	"/>
	<path class="st1" d="M115.7,8.2v93.9l39.1-1.8l-3.4,41.2l-35.8,9.1v30l64.6-17.4c3.2-31,9.7-93.8,9.7-93.8l-43.3,1.4V38.3l46.7-1.3
		c0,0,2.1-18.9,3.1-28.8C169.6,8.2,142.6,8.2,115.7,8.2z"/>
	<path class="st0" d="M70.8,8.2v134.7l-7.1-1.7l-1.6-22c0,0-29.4-2.2-29.4-2.2c1.6,15.4,3.3,30.8,4.9,46.2l63.9,17.2V8.2H70.8z"/>
</g>
</svg>
