<?xml version="1.0" encoding="utf-8"?>
<!-- Generator: Adobe Illustrator 23.0.0, SVG Export Plug-In . SVG Version: 6.00 Build 0)  -->
<svg version="1.1" id="Layer_1" xmlns="http://www.w3.org/2000/svg" xmlns:xlink="http://www.w3.org/1999/xlink" x="0px" y="0px"
	 viewBox="0 0 512 512" style="enable-background:new 0 0 512 512;" xml:space="preserve">
<style type="text/css">
	.st0{fill:#FFD93A;}
	.st1{fill:#DAB92C;}
	.st2{fill:#FFFFFF;}
	.st3{fill:#EAE5D0;}
</style>
<path class="st0" d="M512,256c0,141.375-114.625,255.9999695-256,255.9999695S0,397.375,0,256S114.6249924,0,256,0
	S512,114.6250076,512,256L512,256z"/>
<path class="st1" d="M511.6249695,241.75l-95-114.25c-2,0.625-94.5,24.375-96.625,24.375c-11.25,0-26.125,26.75-35.125,31.5
	c-10.5,5.5-160.5,96.25-160,221.25L241.75,511.625c4.75,0.25,9.5,0.3749695,14.25,0.3749695
	c141.375,0,256-114.6249695,256-255.9999847C512,251.25,511.875,246.5,511.6249695,241.75z"/>
<g>
	<polygon class="st2" points="96.25,127.5 124.875,404.5 256.25,444.5 387.75,404.5 416.625,127.5 	"/>
	<polygon class="st3" points="256.25,444.5 387.75,412.5 416.625,127.5 256.25,127.5 	"/>
	<path class="st1" d="M264.625,176.875V294.25l48.8749695-2.25L309.25,343.5l-44.7500305,11.375v37.5l80.75-21.75
		c4-38.75,12.125-117.2499847,12.125-117.2499847l-54.125,1.75V214.5l58.375-1.625c0,0,2.625-23.625,3.875-36
		C332,176.875,298.25,176.875,264.625,176.875z"/>
	<path class="st0" d="M208.5,176.875V345.25l-8.875-2.125l-2-27.5l-36.75-2.75c2,19.25,4.125,38.5,6.125,57.75l79.875,21.5v-215.25
		H208.5z"/>
</g>
</svg>
