<?xml version="1.0" encoding="utf-8"?>
<!-- Generator: Adobe Illustrator 23.0.0, SVG Export Plug-In . SVG Version: 6.00 Build 0)  -->
<svg version="1.1" id="Слой_1" xmlns="http://www.w3.org/2000/svg" xmlns:xlink="http://www.w3.org/1999/xlink" x="0px" y="0px"
	 viewBox="0 0 410 410" style="enable-background:new 0 0 410 410;" xml:space="preserve">
<style type="text/css">
	.st0{fill:#00056D;}
	.st1{fill:none;stroke:#FFFFFF;stroke-width:16;stroke-miterlimit:10;}
	.st2{fill-rule:evenodd;clip-rule:evenodd;fill-opacity:0.2;}
	.st3{fill-rule:evenodd;clip-rule:evenodd;fill:#FFFFFF;}
</style>
<title>GitHub icon flat</title>
<circle class="st0" cx="205" cy="205" r="205"/>
<circle class="st1" cx="205.6" cy="208.3" r="165"/>
<path class="st2" d="M213.7,410L103.8,300.2l196.3-196.3L410,213.7c-2.2,53.1-24.5,101-59.6,136.2c-0.2,0.2-0.4,0.4-0.6,0.6
	C314.7,385.5,266.8,407.9,213.7,410z"/>
<path class="st3" d="M205,68.7c-76.7,0-138.8,62.2-138.8,138.8c0,76.7,62.2,138.8,138.8,138.8s138.8-62.1,138.8-138.8
	S281.7,68.7,205,68.7z M281.3,296.5l-8.2,8l-0.2-0.2c-3.5,2.7-7.4,5-11.7,6.6c-4,1.5-7.9,2.5-11.9,3c-1.9,0.2-50.6-20.3-89.1-58.8
	c-38.9-38.9-59.4-77.4-59.4-89.8c0.4-3.9,1.4-7.8,3-11.9c1.7-4.3,3.9-8.3,6.7-11.7l-0.2-0.2l8.1-8.1c5.9-5.9,15.4-6.1,21.1-0.4
	l28.7,28.7c5.7,5.7,5.5,15.2-0.4,21.1l-4.8,4.8l-9.7,9.7c0.4,0.8,0.9,1.6,1.3,2.4c0.1,0.1,0.2,0.3,0.2,0.4v0.1
	c5.1,9.1,12,21.6,25.2,34.8c13.1,13.1,25.6,20.1,34.7,25.1c1,0.6,1.9,1.1,2.9,1.6l14.4-14.4c5.9-5.9,15.4-6.1,21.1-0.4l28.7,28.7
	C287.4,281.1,287.2,290.6,281.3,296.5z M210.2,166.4c-0.3-5.7,5.2-9.8,10.6-8c15.6,5.3,28.1,17.4,34,32.8c2,5.4-2.1,11.1-7.9,10.8
	c-3.1-0.2-5.9-2.1-7-5c-4.2-11.1-13.2-19.8-24.4-23.6C212.5,172.5,210.4,169.7,210.2,166.4z M282.3,204c-3.7-0.2-6.8-2.9-7.5-6.6
	c-5.6-30.2-29.7-53.5-59.6-58.5c-3.7-0.6-6.6-3.7-6.8-7.5c-0.3-5.1,4.3-9.1,9.4-8.3c36.5,6.1,65.9,34.6,72.7,71.4
	C291.5,199.6,287.5,204.3,282.3,204z M319.2,205.8c-5.8,0.4-8.8-1.9-10.5-9.4c-1.4-10.7-4.4-20.8-8.7-30.2
	c-5.5-12-13.1-22.7-22.3-31.7s-20.1-16.4-32-21.6c-9.5-4.2-19.7-7-30.3-8.2c-0.8-0.1-1.5-0.1-2.2-0.2c-3.6-0.3-6.3-3.3-6.5-6.8
	l-0.1-1.6c-0.2-4.3,3.5-7.9,7.8-7.5c0.2,0,0.3,0,0.5,0c12.7,1.3,24.9,4.4,36.2,9.3c13.8,5.9,26.4,14.4,37.2,24.8
	c10.8,10.4,19.6,22.8,26,36.6c5.5,11.9,9.2,24.9,10.6,38.5C325.2,200,325,205.4,319.2,205.8z"/>
</svg>
