<?xml version="1.0" encoding="utf-8"?>
<!-- Generator: Adobe Illustrator 23.0.0, SVG Export Plug-In . SVG Version: 6.00 Build 0)  -->
<svg version="1.1" id="Слой_1" xmlns="http://www.w3.org/2000/svg" xmlns:xlink="http://www.w3.org/1999/xlink" x="0px" y="0px"
	 viewBox="0 0 409.6 409.6" style="enable-background:new 0 0 409.6 409.6;" xml:space="preserve">
<style type="text/css">
	.st0{fill:#00056D;}
	.st1{fill-rule:evenodd;clip-rule:evenodd;fill-opacity:0.2;}
	.st2{fill-rule:evenodd;clip-rule:evenodd;fill:#FFFFFF;}
</style>
<title>GitHub icon flat</title>
<circle class="st0" cx="204.5" cy="204.7" r="204.5"/>
<path class="st1" d="M213,409L103.4,299.4l195.9-195.9l109.6,109.6c-2.2,53-24.5,100.7-59.4,135.8c-0.2,0.2-0.4,0.4-0.6,0.6
	C313.7,384.5,265.9,406.8,213,409z"/>
<path class="st2" d="M204.5,343.2c76.5,0,138.5-62,138.5-138.5c0-76.5-62-138.5-138.5-138.5S66,128.2,66,204.7
	C66,281.2,128,343.2,204.5,343.2z M264.3,229.8l28.6,28.6c5.7,5.7,5.5,15.1-0.4,21l-8.2,8l-0.2-0.2c-3.4,2.7-7.4,5-11.7,6.6
	c-4,1.5-7.9,2.5-11.9,3c-1.9,0.2-50.5-20.3-88.9-58.6c-38.8-38.8-59.3-77.2-59.3-89.5c0.4-3.9,1.4-7.8,3-11.9
	c1.7-4.3,3.9-8.3,6.6-11.7l-0.2-0.2l8.1-8.1c5.9-5.9,15.3-6.1,21-0.4l28.6,28.6c5.7,5.7,5.5,15.1-0.4,21l-4.8,4.8l-9.7,9.7
	c0.4,0.8,0.9,1.5,1.3,2.4c0.1,0.1,0.2,0.3,0.2,0.4l0,0.1c5.1,9.1,12,21.6,25.1,34.7c13.1,13.1,25.6,20,34.7,25.1
	c1,0.6,1.9,1.1,2.8,1.6l14.4-14.4C249.2,224.3,258.6,224.2,264.3,229.8z"/>
</svg>
