<svg xmlns="http://www.w3.org/2000/svg" viewBox="0 0 409.6 409.6"><defs><style>.a{fill:#00b6bd;}.b{fill:#00969b;}.c{fill:#fff;}.d{fill:none;}.e{fill:#e2e2e7;}</style></defs><title>Ресурс 1</title><path class="a" d="M409.6,204.8c0,113.11-91.69,204.8-204.8,204.8S0,317.91,0,204.8,91.69,0,204.8,0,409.6,91.69,409.6,204.8Z"/><path class="b" d="M300,109.5,249.94,81l-45.5-8.31.75,262-31.85-5.69-36.77-15.24-32.52-21.35L210.43,409.52s8.5-.23,17.67-1.23c8.87-1,16.36-2.54,16.36-2.54,89.7-17.6,158.39-93.75,164.66-187Z"/><path class="c" d="M151.56,153H136.75L177.12,267.1l22.6-64.58L182.2,153H166.57V142.11h69.19V153h-16.2L259.93,267.1l14.51-41.47c19-53.13-15.6-69.68-15.6-81.54a21.47,21.47,0,0,1,21.47-21.47c.64,0,1.26,0,1.87.1a112.18,112.18,0,0,0-170.36,19.39h39.74V153Z"/><path class="c" d="M93,204.3a112.16,112.16,0,0,0,59.59,99.11L102,160.3A111.92,111.92,0,0,0,93,204.3Z"/><path class="c" d="M302.83,149a79.26,79.26,0,0,1-1.35,30.73h.45l-1.7,4.85h0a105.27,105.27,0,0,1-3.7,10.6L257.92,303.34A112.24,112.24,0,0,0,302.83,149Z"/><path class="c" d="M170.6,311a112.56,112.56,0,0,0,67.68.48l-32.81-92.76Z"/><path class="c" d="M300,109.5a134.07,134.07,0,1,0,39.27,94.8A133.16,133.16,0,0,0,300,109.5ZM205.19,328.92A124.62,124.62,0,1,1,329.81,204.3,124.75,124.75,0,0,1,205.19,328.92Z"/><path class="d" d="M329.81,204.3A124.75,124.75,0,0,0,205.19,79.69h-.05a124.62,124.62,0,0,0,0,249.23h.05A124.76,124.76,0,0,0,329.81,204.3Z"/><path class="d" d="M205.14,328.92a124.62,124.62,0,0,1,0-249.23V70.23a134.08,134.08,0,0,0,0,268.15Z"/><path class="e" d="M205.19,79.69a124.62,124.62,0,1,1,0,249.23h-.05v9.46h.06a134.08,134.08,0,0,0,0-268.15h-.05v9.46Z"/></svg>