<?xml version="1.0" encoding="utf-8"?>
<!-- Generator: Adobe Illustrator 23.0.0, SVG Export Plug-In . SVG Version: 6.00 Build 0)  -->
<svg version="1.1" id="Слой_1" xmlns="http://www.w3.org/2000/svg" xmlns:xlink="http://www.w3.org/1999/xlink" x="0px" y="0px"
	 viewBox="0 0 102.4 15.6" style="enable-background:new 0 0 102.4 15.6;" xml:space="preserve">
<style type="text/css">
	.st0{fill:#FFFFFF;}
	.st1{fill:#00056D;}
</style>
<title>Ресурс 5</title>
<path class="st0" d="M100.5,9.8l-1.3-1.9l0.9-1.3l0,0c1.2-0.2,2.1-1.2,2.1-2.5V3.3c0-1.4-1.1-2.5-2.5-2.5H81.2c-1.7,0-2.4,0.5-3.5,2
	c-0.1,0.2-0.4,0.6-0.4,0.6V3.3c0-1.4-1.1-2.5-2.5-2.5H60.6c-1.4,0-2.5,1.1-2.5,2.5v1c-1-0.8-2.3-1.2-3.6-1.2V2.6
	c0-0.8-0.4-1.6-1.1-2.1C52.8,0.1,52-0.1,51.3,0c-0.6,0-2.4,0.1-2.4,0.1c-1.3,0.1-2.2,1.2-2.2,2.5v0.5c-0.2,0-0.5-0.1-0.7-0.1
	c-0.4,0-0.8,0-1.2,0.1c-0.1-1.3-1.2-2.4-2.5-2.4H28.6c-1.4,0-2.5,1.1-2.5,2.5v0.8c0,0.1,0,0.1,0,0.2c-1-0.8-2.3-1.3-3.6-1.3
	c-1.1,0-2.2,0.3-3.1,0.8c-1.1-0.5-2.3-0.8-3.5-0.8c-1.6,0-3.2,0.6-4.4,1.7l-0.1,0.1l-0.8-2.5c-0.3-1-1.3-1.7-2.3-1.7h-2
	c-1.1,0-2,0.7-2.4,1.7L1.4,10C0.5,10.4,0,11.3,0,12.2V13c0,0.3,0.1,0.7,0.2,1c0.4,0.9,1.2,1.6,2.2,1.6h3.3c0.4,0,0.8-0.1,1.2-0.3
	c0.4,0.2,0.8,0.3,1.2,0.3h7.4c1.2,0,2.4-0.4,3.5-1c1,0.7,2.2,1,3.5,1c1.7-0.1,3.3-0.7,4.5-1.8c0.9-0.3,1.9-0.3,2.8,0.1
	c0.7,0.8,1.2,1.6,2.3,1.6h1.7c0.7,0,1.3-0.3,1.8-0.7c0.5,0.5,1.1,0.7,1.8,0.7H39c1.1,0,2.1-0.7,2.4-1.8v-0.1c1.1,1.3,2.8,2.1,4.5,2
	c1.1,0,2.1-0.3,3.1-0.8c1.2,0.5,2.5,0.8,3.9,0.8c3,0.1,5.6-2,6.2-4.9c0.6,3.1,2.8,4.9,6.2,4.9c1.2,0,2.4-0.3,3.4-0.9
	c0.5,0.5,1.1,0.8,1.8,0.8h4.2c1.5,0.1,2.9-0.7,3.7-2c0.4-0.5,1.4-2.2,1.4-2.2c0.7,2.7,2.8,4.3,6.1,4.3c1.1,0,2.1-0.2,3.1-0.7
	c0.5,0.4,1,0.6,1.6,0.6h9.3c1.4,0,2.5-1.1,2.5-2.5v-0.8C102.4,11,101.6,10,100.5,9.8z"/>
<path class="st1" d="M8.3,3.3h-2l-3,8.8l-0.8,0.1V13h3.3v-0.8l-1-0.1l0.5-1.7h3.3l0.5,1.7l-1,0.1V13H12v-0.8l-0.8-0.1L8.3,3.3z
	 M5.5,9.5l1.2-4l0.2-1l0.2,1l1.2,4H5.5z"/>
<path class="st1" d="M16,12c-1.1,0-1.8-1-1.8-3s0.6-2.6,1.6-2.6c0.4,0,0.7,0.1,0.8,0.3l0.3,1.4H18L18.1,6c-0.7-0.2-1.4-0.4-2.1-0.4
	C14,5.5,12.4,7,12.3,9c0,0.2,0,0.3,0,0.5c0,2.1,1,3.7,3.3,3.7c0.9,0,1.8-0.4,2.5-1l-0.3-0.7C17.3,11.8,16.7,12,16,12z"/>
<path class="st1" d="M22.6,5.5c-2.1,0.1-3.5,1.5-3.5,3.9c0,2.2,1,3.8,3.4,3.8c1,0,2-0.4,2.7-1l-0.3-0.7C24.3,11.8,23.7,12,23,12
	c-1.3,0-1.9-1-2-2.5h4.2c0.1-0.4,0.1-0.8,0.1-1.3c0-1.4-0.8-2.5-2.2-2.7C22.9,5.5,22.8,5.5,22.6,5.5z M23.5,8.7H21
	c0-1.8,0.6-2.3,1.4-2.3s1.2,0.7,1.2,1.7C23.5,8.5,23.5,8.7,23.5,8.7z"/>
<polygon class="st1" points="39.2,4.1 40.3,4.3 38.8,10.2 38.6,11.7 38.2,10.2 36.6,4.3 37.8,4.1 37.8,3.3 33.8,3.3 33.8,4.1 
	34.6,4.3 35,5.4 33.6,10.2 33.3,11.6 33,10.2 31.4,4.3 32.5,4.1 32.5,3.3 28.6,3.3 28.6,4.1 29.4,4.3 32.1,13.1 33.8,13.1 35.5,7 
	37.3,13.1 39,13.1 41.5,4.3 42.3,4.1 42.3,3.3 39.2,3.3 "/>
<path class="st1" d="M46,5.6c-2.1,0.1-3.5,1.4-3.5,3.8c0,2.2,1,3.8,3.4,3.8c1,0,2-0.4,2.7-1l-0.3-0.7c-0.6,0.4-1.2,0.6-1.9,0.6
	c-1.3,0-1.9-1-2-2.5h4.2c0.1-0.4,0.1-0.8,0.1-1.3c0-1.4-0.9-2.5-2.2-2.7C46.3,5.5,46.2,5.5,46,5.6z M44.4,8.7c0-1.8,0.6-2.3,1.4-2.3
	S47,7.1,47,8.1c0,0.4,0,0.6-0.1,0.6L44.4,8.7z"/>
<path class="st1" d="M53.9,5.6c-0.8,0-1.5,0.3-2,0.8V2.6l-0.4-0.3l0,0l-2.4,0.3v0.7l1,0.2v9.2c0.9,0.4,1.8,0.6,2.7,0.5
	c2.1,0.1,3.8-1.6,3.9-3.7c0-0.1,0-0.2,0-0.3C56.8,6.6,55.5,5.6,53.9,5.6z M52.9,12.4c-0.5,0-0.9-0.1-1-0.3V7.3
	c0.3-0.4,0.8-0.6,1.3-0.6c0.9,0,1.6,0.7,1.6,2.6C54.8,11.4,54,12.4,52.9,12.4L52.9,12.4z"/>
<path class="st1" d="M66.6,4.1l1.1,0.2v4.9c0,1.9-0.6,3-2.1,3s-2.2-1-2.2-3.1V4.3l1.1-0.2V3.3h-3.9v0.8l0.9,0.2V9
	c0,2.9,1.3,4.1,3.9,4.1c2.1,0,3.6-1.2,3.6-4V4.3l0.9-0.2V3.3h-3.3V4.1z"/>
<polygon class="st1" points="70.6,4.1 71.7,4.3 71.7,12.1 70.6,12.2 70.6,13 74.7,13 74.7,12.2 73.6,12.1 73.6,4.3 74.7,4.1 
	74.7,3.3 70.6,3.3 "/>
<polygon class="st1" points="76.3,12.1 79.7,6.8 79.7,4.2 76.3,9.5 "/>
<path class="st1" d="M87.2,4.1l1.1,0.2v4.9c0,1.9-0.6,3-2.1,3s-2.2-1-2.2-3.1V4.3l1.1-0.2V3.3h-3.9v0.8L82,4.3V9
	c0,2.9,1.3,4.1,3.9,4.1c2.1,0,3.6-1.2,3.6-4V4.3l0.9-0.2V3.3h-3.2V4.1z"/>
<polygon class="st1" points="99,12.1 96.2,7.9 98.7,4.3 99.8,4.1 99.8,3.3 96.4,3.3 96.4,4.1 97.5,4.3 95.7,7.3 93.9,4.3 95,4.1 
	95,3.3 90.8,3.3 90.8,4.1 91.7,4.3 94.3,8.3 91.8,12.1 90.7,12.2 90.7,13 94.2,13 94.2,12.2 92.9,12.1 94.8,8.9 96.8,12.1 
	95.7,12.2 95.7,13 99.9,13 99.9,12.2 "/>
</svg>
